<svg id="Artwork" xmlns="http://www.w3.org/2000/svg" width="2560" height="1440" viewBox="0 0 2560 1440">
          <g class="scope">
            <path d="M1267.68,1229.93a1,1,0,0,1-.87-0.5l-8-13.86a1,1,0,0,1,.37-1.37l25.11-14.5,9,15.59-25.11,14.5a1,1,0,0,1-.5.13h0Z" style="fill: #fff"></path>
            <path d="M1283.93,1201.07l8,13.86-24.25,14-8-13.86,24.25-14m0.73-2.73-26,15a2,2,0,0,0-.73,2.73l8,13.86a2,2,0,0,0,2.73.73l26-15-10-17.32h0Z" style="fill: #005e93"></path>
          </g>
          <g class="scope">
            <path d="M1295.16,1217.53a1,1,0,0,1-.87-0.5l-11-19.05a1,1,0,0,1,.37-1.37l28.58-16.5,12,20.79-28.58,16.5a1,1,0,0,1-.5.13h0Z" style="fill: #fff"></path>
            <path d="M1311.87,1181.47l11,19.05-27.71,16-11-19.05,27.71-16m0.73-2.73-29.44,17a2,2,0,0,0-.73,2.73l11,19.05a2,2,0,0,0,2.73.73l29.44-17-13-22.52h0Z" style="fill: #005e93"></path>
          </g>
          <g class="scope">
            <path d="M1326.11,1203.12a1,1,0,0,1-.87-0.5l-14-24.25a1,1,0,0,1,.37-1.37l3.46-2a1,1,0,0,1,.5-0.13,1,1,0,0,1,.87.5l14,24.25a1,1,0,0,1-.37,1.37l-3.46,2a1,1,0,0,1-.5.13h0Z" style="fill: #65c3e8"></path>
            <path d="M1315.57,1175.88h0l14,24.25-3.46,2-14-24.25,3.46-2m0-2a2,2,0,0,0-1,.27l-3.46,2a2,2,0,0,0-.73,2.73l14,24.25a2,2,0,0,0,2.73.73l3.46-2a2,2,0,0,0,.73-2.73l-14-24.25a2,2,0,0,0-1.73-1h0Z" style="fill: #005e93"></path>
          </g>
          <g class="scope">
            <path d="M1248.86,1237.33a1,1,0,0,1-.87-0.5l-5-8.66a1,1,0,0,1,.37-1.37l16.45-9.5,6,10.39-16.45,9.5a1,1,0,0,1-.5.13h0Z" style="fill: #fff"></path>
            <path d="M1259.45,1218.67l5,8.66-15.59,9-5-8.66,15.59-9m0.73-2.73-17.32,10a2,2,0,0,0-.73,2.73l5,8.66a2,2,0,0,0,2.73.73l17.32-10-7-12.12h0Z" style="fill: #005e93"></path>
          </g>
          <g class="scope">
            <rect x="1238.03" y="1232.5" width="8" height="4" transform="translate(-450.85 786.4) rotate(-30)" style="fill: #f3f6f8"></rect>
            <path d="M1244.13,1232.13l1,1.73-5.2,3-1-1.73,5.2-3m0.73-2.73-8.66,5,3,5.2,8.66-5-3-5.2h0Z" style="fill: #005e93"></path>
          </g>
          <rect class="scope" x="1234.56" y="1235.5" width="8" height="2" transform="translate(1690.12 -454.38) rotate(60)" style="fill: #005e93"></rect>
          <rect class="scope" x="1286.06" y="1200.5" width="2" height="16" transform="translate(-431.82 805.44) rotate(-30)" style="fill: #caedff"></rect>
          <rect class="scope" x="1260.08" y="1218.5" width="2" height="10" transform="translate(-442.8 794.46) rotate(-30)" style="fill: #caedff"></rect>
          <rect class="scope" x="1315.51" y="1180.5" width="2" height="22" transform="translate(-419.37 817.88) rotate(-30)" style="fill: #caedff"></rect>
        </svg>